<?xml version="1.0" encoding="utf-8"?>
<!-- Generator: Adobe Illustrator 16.0.0, SVG Export Plug-In . SVG Version: 6.00 Build 0)  -->
<!DOCTYPE svg PUBLIC "-//W3C//DTD SVG 1.1//EN" "http://www.w3.org/Graphics/SVG/1.1/DTD/svg11.dtd">
<svg version="1.1" xmlns="http://www.w3.org/2000/svg" xmlns:xlink="http://www.w3.org/1999/xlink" x="0px" y="0px"
	 width="41.007px" height="41.006px" viewBox="0 0 41.007 41.006" enable-background="new 0 0 41.007 41.006" xml:space="preserve">
<g id="Layer_3">
	<g>
		<path fill="#FFD016" d="M11.782,19.391c-0.147-0.009-0.278,0.047-0.368,0.186c-0.089,0.136-0.105,0.288-0.109,0.436
			c-0.009,0.407-0.003,0.814-0.003,1.222c0,0.373-0.001,0.745,0,1.119c0.001,0.181,0.016,0.357,0.099,0.522
			c0.076,0.15,0.203,0.217,0.366,0.211c0.167-0.006,0.29-0.082,0.359-0.24c0.063-0.146,0.079-0.299,0.08-0.452
			c0.004-0.775,0.002-1.552,0.002-2.327c0-0.128-0.018-0.258-0.055-0.379C12.101,19.51,11.964,19.401,11.782,19.391z"/>
		<path fill="#FFD016" d="M28.566,18.482c-0.269-0.031-0.517,0.027-0.737,0.189c-0.137,0.101-0.259,0.215-0.387,0.369
			c0-0.062,0-0.096,0-0.127c0-0.691-0.001-1.383,0.002-2.075c0-0.092-0.019-0.125-0.118-0.122c-0.234,0.008-0.47,0.012-0.704,0
			c-0.136-0.008-0.157,0.041-0.157,0.162c0.004,1.645,0.004,3.289,0.004,4.933c0,0.642,0,1.284,0,1.926
			c0,0.06-0.02,0.128,0.086,0.126c0.269-0.004,0.537-0.003,0.805,0c0.061,0,0.082-0.02,0.079-0.08c-0.003-0.129,0-0.256,0-0.385
			c0.009-0.002,0.019-0.004,0.029-0.007c0.024,0.027,0.049,0.056,0.075,0.083c0.173,0.178,0.353,0.346,0.599,0.42
			c0.499,0.15,0.902-0.057,1.055-0.553c0.062-0.199,0.099-0.404,0.099-0.613c0.003-0.936,0.007-1.871,0.007-2.806
			c0-0.333-0.015-0.663-0.145-0.978C29.049,18.682,28.854,18.52,28.566,18.482z M28.335,22.342c-0.008,0.137-0.014,0.274-0.037,0.41
			c-0.042,0.25-0.292,0.367-0.559,0.269c-0.096-0.034-0.174-0.097-0.253-0.159c-0.053-0.041-0.044-0.094-0.044-0.148
			c0-0.502,0-1.004,0-1.51c0,0,0,0,0.001,0c0-0.497,0.003-0.996-0.002-1.494c-0.001-0.096,0.036-0.158,0.103-0.213
			c0.206-0.172,0.488-0.194,0.643-0.047c0.114,0.11,0.14,0.256,0.141,0.404c0.006,0.599,0.007,1.197,0.009,1.798
			C28.336,21.881,28.349,22.113,28.335,22.342z"/>
		<path fill="#FFD016" d="M25.466,18.541c-0.226,0.008-0.453,0.01-0.679,0c-0.118-0.006-0.146,0.032-0.146,0.146
			c0.004,1.238,0.003,2.476,0.003,3.713c0,0.278-0.257,0.589-0.532,0.645c-0.169,0.033-0.274-0.041-0.301-0.211
			c-0.037-0.234-0.016-0.469-0.016-0.703c-0.001-1.149-0.001-2.3,0.002-3.449c0-0.109-0.027-0.146-0.14-0.141
			c-0.222,0.01-0.445,0.002-0.667,0.002c-0.161,0-0.161,0-0.161,0.164c0,1.359,0.004,2.72-0.001,4.078
			c0,0.199-0.007,0.391,0.034,0.592c0.061,0.289,0.234,0.5,0.531,0.545c0.362,0.058,0.663-0.078,0.928-0.312
			c0.105-0.093,0.198-0.198,0.323-0.324c0,0.18,0.007,0.321-0.002,0.462c-0.006,0.098,0.03,0.119,0.121,0.115
			c0.24-0.004,0.478-0.006,0.717,0.002c0.102,0.003,0.124-0.03,0.124-0.127c-0.004-0.696-0.001-1.394-0.001-2.089
			c0.001-0.99-0.001-1.979,0.004-2.971C25.607,18.564,25.574,18.537,25.466,18.541z"/>
		<path fill="#FFD016" d="M22.553,16.719c-1.057,0.002-2.115,0.002-3.172,0c-0.078,0-0.1,0.021-0.099,0.1
			c0.004,0.271,0.005,0.545,0,0.817c-0.001,0.083,0.024,0.106,0.106,0.106c0.298-0.004,0.596,0.003,0.893-0.004
			c0.108-0.004,0.143,0.021,0.142,0.139c-0.004,0.977-0.002,1.954-0.002,2.932c0,0,0,0,0.001,0c0,0.974,0.002,1.946-0.003,2.92
			c-0.001,0.115,0.035,0.14,0.142,0.137c0.26-0.008,0.521-0.011,0.78,0c0.13,0.006,0.157-0.033,0.157-0.158
			c-0.004-1.934-0.002-3.869-0.001-5.803c0-0.186-0.025-0.162,0.17-0.164c0.293-0.001,0.587-0.002,0.881,0.002
			c0.082,0,0.11-0.025,0.108-0.107c-0.004-0.27-0.004-0.538,0-0.807C22.658,16.75,22.64,16.719,22.553,16.719z"/>
		<path fill="#FFD016" d="M20.503,0C9.179,0,0,9.178,0,20.502s9.179,20.504,20.503,20.504s20.504-9.18,20.504-20.504
			S31.827,0,20.503,0z M10.283,16.88c-0.159,0.519-0.315,1.039-0.472,1.558c-0.254,0.842-0.507,1.685-0.764,2.525
			C9.033,21.01,9.034,21.054,9.034,21.1c-0.001,0.893-0.002,1.787,0.002,2.682c0,0.105-0.032,0.137-0.135,0.133
			c-0.276-0.005-0.553-0.004-0.831,0c-0.08,0-0.115-0.014-0.121-0.11c-0.042-0.623-0.017-1.247-0.012-1.872
			c0.002-0.209,0.031-0.424,0.032-0.635c0.001-0.293-0.075-0.58-0.179-0.857c-0.28-0.752-0.511-1.518-0.75-2.282
			c-0.137-0.436-0.272-0.87-0.413-1.305c-0.028-0.087-0.007-0.108,0.08-0.106c0.307,0.004,0.613,0.006,0.919,0
			c0.092-0.004,0.127,0.028,0.15,0.115c0.172,0.65,0.35,1.301,0.526,1.95c0.062,0.23,0.124,0.462,0.192,0.714
			c0.135-0.522,0.262-1.017,0.389-1.512c0.101-0.387,0.203-0.775,0.302-1.162c0.019-0.076,0.05-0.107,0.134-0.105
			c0.289,0.006,0.579,0.008,0.868-0.002C10.312,16.741,10.311,16.788,10.283,16.88z M13.185,22.395
			c0.001,0.349-0.072,0.685-0.27,0.986c-0.226,0.344-0.554,0.521-0.94,0.581c-0.501,0.078-0.94-0.075-1.289-0.452
			c-0.181-0.195-0.266-0.439-0.317-0.697c-0.103-0.512-0.019-1.027-0.048-1.427c0-0.517-0.005-0.919,0.002-1.322
			c0.003-0.267,0.043-0.531,0.161-0.773c0.214-0.439,0.573-0.689,1.055-0.761c0.5-0.073,0.924,0.08,1.271,0.442
			c0.229,0.239,0.328,0.54,0.35,0.859C13.223,20.686,13.182,21.54,13.185,22.395z M16.743,23.774c0,0.114-0.036,0.144-0.143,0.14
			c-0.234-0.007-0.47-0.008-0.705,0c-0.115,0.004-0.144-0.037-0.136-0.145c0.009-0.131,0.001-0.264,0.001-0.423
			c-0.161,0.2-0.33,0.353-0.524,0.472c-0.233,0.142-0.49,0.205-0.758,0.144c-0.292-0.065-0.44-0.267-0.502-0.644
			c-0.019-0.113-0.025-0.229-0.025-0.345c-0.001-1.423,0.002-2.846-0.001-4.268c0-0.107,0.029-0.133,0.132-0.13
			c0.255,0.008,0.512,0.006,0.768,0.002c0.077-0.002,0.099,0.02,0.099,0.097c-0.002,1.284,0.001,2.569-0.002,3.853
			c0,0.098-0.01,0.197,0.003,0.297c0.027,0.235,0.166,0.324,0.381,0.225c0.182-0.084,0.312-0.229,0.415-0.4
			c0.023-0.039,0.014-0.082,0.014-0.122c0.001-1.271,0.003-2.542-0.001-3.814c0-0.111,0.027-0.14,0.136-0.136
			c0.239,0.01,0.479,0.008,0.718,0c0.101-0.003,0.133,0.019,0.131,0.127c-0.006,0.596-0.002,1.191-0.002,1.787
			C16.741,21.585,16.739,22.68,16.743,23.774z M34.277,22.945c-0.029,0.332-0.054,0.664-0.117,0.988
			c-0.111,0.58-0.325,1.109-0.78,1.509c-0.267,0.235-0.59,0.356-0.94,0.387c-0.387,0.032-0.774,0.056-1.162,0.075
			c-0.451,0.021-0.903,0.037-1.355,0.053c-0.975,0.03-1.951,0.044-2.927,0.059c-0.512,0.006-1.024,0.021-1.534,0.006
			c-0.612-0.021-1.225-0.002-1.836-0.022c-0.548-0.017-1.097-0.028-1.645-0.05c-0.535-0.02-1.07-0.042-1.604-0.078
			c-0.266-0.017-0.534-0.02-0.798-0.064c-0.49-0.082-0.865-0.34-1.139-0.746c-0.336-0.499-0.469-1.064-0.517-1.658
			c-0.025-0.314-0.071-0.629-0.097-0.942c-0.012-0.133-0.02-0.268-0.025-0.401c-0.024-0.568-0.058-1.139-0.047-1.707
			c0.021-1.029,0.077-2.059,0.215-3.078c0.08-0.594,0.244-1.158,0.684-1.6c0.287-0.292,0.63-0.459,1.038-0.497
			c0.134-0.013,0.267-0.025,0.401-0.022c0.362,0.005,0.722-0.037,1.083-0.056c0.935-0.045,1.87-0.075,2.806-0.1
			c1.204-0.031,2.407-0.021,3.612-0.017c0.762,0.005,1.524,0.031,2.286,0.062c0.262,0.012,0.522,0.021,0.783,0.036
			c0.319,0.021,0.638,0.031,0.957,0.048c0.319,0.018,0.641,0.018,0.955,0.059c0.453,0.062,0.83,0.295,1.091,0.672
			c0.301,0.434,0.46,0.926,0.528,1.447c0.073,0.568,0.117,1.137,0.148,1.711c0.033,0.582,0.05,1.164,0.048,1.744
			C34.387,21.49,34.342,22.219,34.277,22.945z"/>
		<path fill="#FFD016" d="M32.877,22.014c-0.264,0.002-0.529,0.004-0.793,0c-0.089-0.002-0.103,0.033-0.094,0.113
			c0.018,0.176,0.014,0.352-0.012,0.527c-0.044,0.295-0.244,0.44-0.535,0.389c-0.213-0.036-0.349-0.203-0.375-0.486
			c-0.033-0.364-0.006-0.729-0.014-1.096c-0.001-0.064,0.028-0.087,0.09-0.084c0.076,0.004,0.152,0.002,0.228,0.002
			c0.499,0,0.998,0,1.498-0.002c0.05,0,0.113,0.021,0.111-0.071c-0.013-0.517,0.029-1.034-0.027-1.548
			c-0.086-0.77-0.638-1.278-1.395-1.278c-0.556,0-1.005,0.216-1.281,0.717c-0.155,0.282-0.186,0.597-0.188,0.915
			c-0.003,0.382-0.001,0.764-0.001,1.145h0.001c0,0.243-0.002,0.486,0,0.73c0.002,0.246-0.006,0.492,0.03,0.736
			c0.042,0.287,0.142,0.55,0.336,0.762c0.239,0.262,0.556,0.393,0.904,0.436c0.481,0.055,0.909-0.061,1.254-0.424
			c0.086-0.091,0.181-0.188,0.224-0.297c0.094-0.236,0.153-0.486,0.142-0.748c-0.003-0.096-0.008-0.195,0.009-0.287
			C33.006,22.062,32.985,22.014,32.877,22.014z M31.091,19.721c0.058-0.252,0.21-0.373,0.45-0.369
			c0.232,0.003,0.379,0.128,0.434,0.375c0.058,0.257,0.019,0.518,0.03,0.777c0.003,0.059-0.031,0.066-0.079,0.066
			c-0.13-0.002-0.26,0-0.391,0c-0.129,0-0.259,0-0.39,0c-0.042-0.002-0.088,0.004-0.086-0.061
			C31.069,20.247,31.031,19.98,31.091,19.721z"/>
	</g>
</g>
<g id="Credits">
</g>
</svg>
